<mxfile host="app.diagrams.net" modified="2023-08-20T22:00:49.559Z" agent="Mozilla/5.0 (Windows NT 10.0; Win64; x64) AppleWebKit/537.36 (KHTML, like Gecko) Chrome/116.0.0.0 Safari/537.36" version="21.6.8" etag="Ke87C3YcDQj-KG6NCEb3" type="github">
  <diagram name="Page-1" id="8gaCuyxEo7ZH6QRS6psB">
    <mxGraphModel>
      <root>
        <mxCell id="0" />
        <mxCell id="1" parent="0" />
      </root>
    </mxGraphModel>
  </diagram>
</mxfile>
